<svg id="Layer_1" enable-background="new 0 0 512 512" viewBox="0 0 512 512" xmlns="http://www.w3.org/2000/svg" width="300" height="300" version="1.1" xmlns:xlink="http://www.w3.org/1999/xlink" xmlns:svgjs="http://svgjs.dev/svgjs"><g width="100%" height="100%" transform="matrix(1,0,0,1,0,0)"><path d="m508.46 199.69c-.55-2.05-1.89-3.8-3.73-4.86l-15.4-8.89 1.97-3.42c.01-.01.02-.03.02-.04 2.65-4.65 2.01-10.32-1.19-14.28l7.17-12.43c3.58-6.31 1.4-14.38-4.86-17.98l-23.17-13.39c-3.04-1.75-6.59-2.21-9.99-1.3-3.42.91-6.27 3.1-8.02 6.14l-7.14 12.37c-5.04-.79-10.3 1.5-13.02 6.17l-17.48 30.29v-65.06c0-5.56-2.08-10.58-6-14.51l-92.48-92.49c-3.93-3.93-8.94-6-14.51-6h-223.34c-11.31-.01-20.51 9.19-20.51 20.5v32.98h-32.98c-11.32 0-20.54 9.21-20.54 20.54v417.46c0 11.31 9.22 20.51 20.54 20.51h315.81c11.31 0 20.51-9.2 20.51-20.51v-32.98h33.01c11.31 0 20.51-9.21 20.51-20.54v-120.91l67.69-117.26 8.46 4.89-35.06 60.7c-2.21 3.83-.9 8.73 2.93 10.94 1.26.73 2.64 1.07 4 1.07 2.77 0 5.46-1.44 6.94-4l39.06-67.63c1.07-1.85 1.35-4.03.8-6.08zm-44.72-60 18.28 10.56-5.3 9.18-18.28-10.56zm-20.4 18.96.07.04c.03.02.06.04.09.06s.06.03.09.05l31.95 18.46c.03.02.07.04.1.06s.05.02.08.04l.06.03-4.25 7.36c-.02.04-.05.07-.07.1-.02.04-.04.07-.06.11l-47.81 82.81-32.43-18.75zm-44.47 151.95c-.13.2-.25.41-.36.62l-16.85 29.19-32.44-18.74 33.93-58.78 32.43 18.75zm-31.46 40.08-18.41 8.83-1.58-20.37zm18.88-250.87h-72.47v-72.47zm-42.19 391.68c0 2.48-2.02 4.49-4.49 4.49h-315.81c-2.49 0-4.52-2.02-4.52-4.49v-417.46c0-2.45 2.07-4.52 4.52-4.52h32.98v368.46c0 11.32 9.2 20.54 20.51 20.54h266.81zm53.52-53.52c0 2.49-2.02 4.52-4.49 4.52h-315.84c-2.48 0-4.49-2.03-4.49-4.52v-417.46c0-2.48 2.02-4.49 4.49-4.49h220.52v91.8c0 4.42 3.58 8.01 8.01 8.01h91.8v89.98l-65.83 114.04c-1.08 1.79-1.57 3.8-1.45 5.98 0 .07.01.13.01.2l3.24 41.77c.3 3.64 2.32 6.81 5.54 8.7l.15.09c1.75.98 3.66 1.47 5.57 1.47 1.56 0 3.13-.33 4.6-1 .05-.02.1-.05.15-.07l37.66-18.05c1.88-.87 3.4-2.22 4.53-4.03.05-.08.1-.16.14-.24l5.69-9.86zm-291.8-383.13c0-4.42 3.58-8.01 8.01-8.01h121.01c4.42 0 8.01 3.58 8.01 8.01s-3.58 8.01-8.01 8.01h-121.01c-4.42 0-8.01-3.59-8.01-8.01zm0 52.98c0-4.42 3.58-8.01 8.01-8.01h121.01c4.42 0 8.01 3.58 8.01 8.01s-3.58 8.01-8.01 8.01h-121.01c-4.42 0-8.01-3.59-8.01-8.01zm94.03 271.56c0 4.42-3.58 8.01-8.01 8.01h-78.01c-4.42 0-8.01-3.58-8.01-8.01s3.58-8.01 8.01-8.01h78.01c4.42 0 8.01 3.59 8.01 8.01zm-94.03-211.92c0-4.42 3.58-8.01 8.01-8.01h242.76c4.42 0 8.01 3.58 8.01 8.01s-3.58 8.01-8.01 8.01h-242.76c-4.42 0-8.01-3.59-8.01-8.01zm0 52.98c0-4.42 3.58-8.01 8.01-8.01h240.15c4.42 0 8.01 3.58 8.01 8.01s-3.58 8.01-8.01 8.01h-240.15c-4.42 0-8.01-3.59-8.01-8.01zm225.58 52.98c0 4.42-3.58 8.01-8.01 8.01h-209.56c-4.42 0-8.01-3.58-8.01-8.01s3.58-8.01 8.01-8.01h209.57c4.42 0 8 3.59 8 8.01zm-23.55 52.98c0 4.42-3.58 8.01-8.01 8.01h-186.01c-4.42 0-8.01-3.58-8.01-8.01s3.58-8.01 8.01-8.01h186.01c4.42 0 8.01 3.59 8.01 8.01z" fill="#002d5a" fill-opacity="1" data-original-color="#000000ff" stroke="none" stroke-opacity="1"/></g></svg>